# xmcd CD database file
# Copyright (C) 1993-1996 Ti Kan
#
# Track frame offsets:
# 195
# 13860
# 27795
# 42447
# 57837
# 70997
# 84487
# 99372
# 112532
# 128110
# 140617
# 153717
# 168055
# 180562
# 196317
# 210777
# 226902
# 239930
# 253830
# 267145
# 282677
# 296425
# 309112
#
# Disc length: 4335 seconds
#
# Revision: 1
# Processed by: cddbd v1.4PL0 Copyright (c) Steve Scherf et al.
# Submitted via: Gronk 1.4
#
DISCID=3e10ed17
DTITLE=Jimmie Rodgers - Sincerely
DYEAR=1900
DGENRE=country
TTITLE0=You and My Old Guitar
TTITLE1=My Little Lady
TTITLE2=Prairie Lullaby
TTITLE3=When The Cactus Is In Bloom
TTITLE4=Pistol Packin' Papa
TTITLE5=Peach Pickin' Time In Georgia
TTITLE6=I've Only Loved Three Women
TTITLE7=Any Old Time
TTITLE8=I'm Lonesome Too
TTITLE9=Dear Sunny South By The Sea
TTITLE10=Blue Yodel No. 10
TTITLE11=Sleep Baby Sleep
TTITLE12=Never No Mo' Blues
TTITLE13=Looking For A New Mama
TTITLE14=No Hard Times
TTITLE15=Gambling Bar Room Blues
TTITLE16=Frankie And Johnny
TTITLE17=My Old Pal
TTITLE18=Jimmie The Kid
TTITLE19=Blue Yodel
TTITLE20=Old Pal of My Heart
TTITLE21=Sweet Mama Hurry Home
TTITLE22=Roll Along Kentucky Moon
EXTD=
EXTT0=
EXTT1=
EXTT2=
EXTT3=
EXTT4=
EXTT5=
EXTT6=
EXTT7=
EXTT8=
EXTT9=
EXTT10=
EXTT11=
EXTT12=
EXTT13=
EXTT14=
EXTT15=
EXTT16=
EXTT17=
EXTT18=
EXTT19=
EXTT20=
EXTT21=
EXTT22=
PLAYORDER=
